# xmcd
#
# Track frame offsets:
#	150
#	17425
#	44350
#	62400
#	81113
#	93350
#
# Disc length: 1482 seconds
#
# Revision: 1
# Processed by: cddbd v1.5.2PL0 Copyright (c) Steve Scherf et al.
# Submitted via: audiograbber 1.83.01
#
DISCID=3a05c806
DTITLE=Louisiana 'Guitar' Red - You Crazy Baby
DYEAR=1900
DGENRE=Blues
TTITLE0=I Miss You So
TTITLE1=Black Cat Bone
TTITLE2=Strawberry
TTITLE3=Alabama Blues
TTITLE4=Dog In Me
TTITLE5=You Crazy Baby
EXTD=
EXTT0=
EXTT1=
EXTT2=
EXTT3=
EXTT4=
EXTT5=
PLAYORDER=
